<?xml version="1.0" encoding="UTF-8"?>
<svg width="1400" height="900" xmlns="http://www.w3.org/2000/svg">
  <defs>
    <style>
      .title { font-family: Arial, sans-serif; font-size: 24px; font-weight: bold; fill: #333; }
      .subtitle { font-family: Arial, sans-serif; font-size: 16px; font-weight: bold; fill: #555; }
      .label { font-family: Arial, sans-serif; font-size: 12px; fill: #333; }
      .small-label { font-family: Arial, sans-serif; font-size: 10px; fill: #666; }
      .web-server { fill: #4CAF50; stroke: #45a049; stroke-width: 2; }
      .database { fill: #2196F3; stroke: #1976D2; stroke-width: 2; }
      .minecraft { fill: #FF9800; stroke: #F57C00; stroke-width: 2; }
      .aws-service { fill: #FF9900; stroke: #E47911; stroke-width: 2; }
      .velocity { fill: #9C27B0; stroke: #7B1FA2; stroke-width: 2; }
      .github { fill: #333; stroke: #222; stroke-width: 2; }
      .arrow { stroke: #666; stroke-width: 2; fill: none; marker-end: url(#arrowhead); }
      .bidirectional { stroke: #666; stroke-width: 2; fill: none; marker-end: url(#arrowhead); marker-start: url(#arrowhead); }
      .aws-region { fill: none; stroke: #FF9900; stroke-width: 3; stroke-dasharray: 10,5; }
      .vpc { fill: none; stroke: #4CAF50; stroke-width: 2; stroke-dasharray: 5,5; }
      .subnet { fill: #E8F5E8; stroke: #4CAF50; stroke-width: 1; opacity: 0.3; }
      .private-subnet { fill: #E3F2FD; stroke: #2196F3; stroke-width: 1; opacity: 0.3; }
    </style>
    <marker id="arrowhead" markerWidth="10" markerHeight="7" refX="9" refY="3.5" orient="auto">
      <polygon points="0 0, 10 3.5, 0 7" fill="#666" />
    </marker>
  </defs>
  
  <!-- Title -->
  <text x="700" y="30" class="title" text-anchor="middle">MineDevOps AWS アーキテクチャ構成図</text>
  
  <!-- AWS Region -->
  <rect x="200" y="60" width="1150" height="750" class="aws-region" rx="10"/>
  <text x="220" y="85" class="subtitle" fill="#FF9900">AWS Region (ap-northeast-1)</text>
  
  <!-- VPC -->
  <rect x="230" y="110" width="1090" height="680" class="vpc" rx="10"/>
  <text x="250" y="135" class="label" fill="#4CAF50">VPC (10.0.0.0/16)</text>
  
  <!-- Public Subnet -->
  <rect x="260" y="150" width="500" height="200" class="subnet" rx="5"/>
  <text x="280" y="175" class="label" fill="#4CAF50">Public Subnet (10.0.1.0/24)</text>
  
  <!-- Private Subnet 1 -->
  <rect x="260" y="370" width="500" height="200" class="private-subnet" rx="5"/>
  <text x="280" y="395" class="label" fill="#2196F3">Private Subnet (10.0.2.0/24)</text>
  
  <!-- Private Subnet 2 -->
  <rect x="780" y="370" width="500" height="200" class="private-subnet" rx="5"/>
  <text x="800" y="395" class="label" fill="#2196F3">Private Subnet (10.0.3.0/24)</text>
  
  <!-- Internet User -->
  <circle cx="100" cy="250" r="30" fill="#E91E63" stroke="#C2185B" stroke-width="2"/>
  <text x="100" y="255" class="label" text-anchor="middle" fill="white">Internet</text>
  <text x="100" y="270" class="label" text-anchor="middle" fill="white">Users</text>
  
  <!-- Internet Gateway -->
  <rect x="180" y="220" width="60" height="60" class="aws-service" rx="5"/>
  <text x="210" y="245" class="small-label" text-anchor="middle" fill="white">Internet</text>
  <text x="210" y="258" class="small-label" text-anchor="middle" fill="white">Gateway</text>
  
  <!-- Application Load Balancer -->
  <rect x="290" y="200" width="100" height="50" class="aws-service" rx="5"/>
  <text x="340" y="220" class="small-label" text-anchor="middle" fill="white">Application</text>
  <text x="340" y="235" class="small-label" text-anchor="middle" fill="white">Load Balancer</text>
  
  <!-- Laravel Web Application -->
  <rect x="420" y="200" width="120" height="50" class="web-server" rx="5"/>
  <text x="480" y="220" class="label" text-anchor="middle" fill="white">Laravel + Vue.js</text>
  <text x="480" y="235" class="small-label" text-anchor="middle" fill="white">(InertiaJS)</text>
  
  <!-- Velocity Proxy Server -->
  <rect x="290" y="280" width="100" height="50" class="velocity" rx="5"/>
  <text x="340" y="300" class="label" text-anchor="middle" fill="white">Velocity</text>
  <text x="340" y="315" class="small-label" text-anchor="middle" fill="white">Proxy Server</text>
  
  <!-- ECS Cluster -->
  <text x="510" y="420" class="subtitle" text-anchor="middle">ECS Cluster (minecraft-cluster)</text>
  
  <!-- Fargate Tasks -->
  <rect x="290" y="440" width="100" height="80" class="minecraft" rx="5"/>
  <text x="340" y="460" class="label" text-anchor="middle" fill="white">Fargate Task</text>
  <text x="340" y="475" class="small-label" text-anchor="middle" fill="white">minecraft-user-1</text>
  <text x="340" y="490" class="small-label" text-anchor="middle" fill="white">Paper Server</text>
  <text x="340" y="505" class="small-label" text-anchor="middle" fill="white">1vCPU, 2GB</text>
  
  <rect x="420" y="440" width="100" height="80" class="minecraft" rx="5"/>
  <text x="470" y="460" class="label" text-anchor="middle" fill="white">Fargate Task</text>
  <text x="470" y="475" class="small-label" text-anchor="middle" fill="white">minecraft-user-2</text>
  <text x="470" y="490" class="small-label" text-anchor="middle" fill="white">Paper Server</text>
  <text x="470" y="505" class="small-label" text-anchor="middle" fill="white">1vCPU, 2GB</text>
  
  <rect x="550" y="440" width="100" height="80" class="minecraft" rx="5" stroke-dasharray="5,5"/>
  <text x="600" y="460" class="label" text-anchor="middle" fill="white">Fargate Task</text>
  <text x="600" y="475" class="small-label" text-anchor="middle" fill="white">minecraft-user-N</text>
  <text x="600" y="490" class="small-label" text-anchor="middle" fill="white">(Auto-scale)</text>
  
  <!-- NAT Gateway -->
  <rect x="680" y="440" width="60" height="40" class="aws-service" rx="5"/>
  <text x="710" y="455" class="small-label" text-anchor="middle" fill="white">NAT</text>
  <text x="710" y="468" class="small-label" text-anchor="middle" fill="white">Gateway</text>
  
  <!-- EFS -->
  <rect x="820" y="420" width="100" height="60" class="database" rx="5"/>
  <text x="870" y="440" class="label" text-anchor="middle" fill="white">Amazon EFS</text>
  <text x="870" y="455" class="small-label" text-anchor="middle" fill="white">fs-minecraft-data</text>
  <text x="870" y="470" class="small-label" text-anchor="middle" fill="white">Shared Storage</text>
  
  <!-- RDS -->
  <rect x="950" y="420" width="100" height="60" class="database" rx="5"/>
  <text x="1000" y="440" class="label" text-anchor="middle" fill="white">Amazon RDS</text>
  <text x="1000" y="455" class="small-label" text-anchor="middle" fill="white">MySQL 8.0</text>
  <text x="1000" y="470" class="small-label" text-anchor="middle" fill="white">Multi-AZ</text>
  
  <!-- ElastiCache -->
  <rect x="1080" y="420" width="100" height="60" class="database" rx="5"/>
  <text x="1130" y="440" class="label" text-anchor="middle" fill="white">ElastiCache</text>
  <text x="1130" y="455" class="small-label" text-anchor="middle" fill="white">Redis</text>
  <text x="1130" y="470" class="small-label" text-anchor="middle" fill="white">Session Store</text>
  
  <!-- CloudWatch -->
  <rect x="290" y="600" width="100" height="50" class="aws-service" rx="5"/>
  <text x="340" y="620" class="label" text-anchor="middle" fill="white">CloudWatch</text>
  <text x="340" y="635" class="small-label" text-anchor="middle" fill="white">Monitoring</text>
  
  <!-- Lambda -->
  <rect x="420" y="600" width="100" height="50" class="aws-service" rx="5"/>
  <text x="470" y="620" class="label" text-anchor="middle" fill="white">Lambda</text>
  <text x="470" y="635" class="small-label" text-anchor="middle" fill="white">Auto Scaling</text>
  
  <!-- S3 -->
  <rect x="550" y="600" width="100" height="50" class="aws-service" rx="5"/>
  <text x="600" y="620" class="label" text-anchor="middle" fill="white">Amazon S3</text>
  <text x="600" y="635" class="small-label" text-anchor="middle" fill="white">Backups</text>
  
  <!-- GitHub (External) -->
  <rect x="50" y="500" width="100" height="50" class="github" rx="5"/>
  <text x="100" y="520" class="label" text-anchor="middle" fill="white">GitHub</text>
  <text x="100" y="535" class="small-label" text-anchor="middle" fill="white">Repository</text>
  
  <!-- GitHub Actions -->
  <rect x="50" y="600" width="100" height="50" class="github" rx="5"/>
  <text x="100" y="620" class="label" text-anchor="middle" fill="white">GitHub Actions</text>
  <text x="100" y="635" class="small-label" text-anchor="middle" fill="white">CI/CD Pipeline</text>
  
  <!-- Arrows and Connections -->
  
  <!-- User to Internet Gateway -->
  <line x1="130" y1="250" x2="175" y2="250" class="arrow"/>
  
  <!-- Internet Gateway to ALB -->
  <line x1="240" y1="250" x2="285" y2="225" class="arrow"/>
  
  <!-- ALB to Laravel -->
  <line x1="390" y1="225" x2="415" y2="225" class="arrow"/>
  
  <!-- Minecraft Traffic: User to Velocity -->
  <line x1="130" y1="260" x2="200" y2="280" class="arrow"/>
  <line x1="240" y1="285" x2="285" y2="305" class="arrow"/>
  
  <!-- Velocity to Fargate Tasks -->
  <line x1="340" y1="330" x2="340" y2="435" class="arrow"/>
  <line x1="355" y1="340" x2="460" y2="435" class="arrow"/>
  <line x1="365" y1="345" x2="590" y2="435" class="arrow"/>
  
  <!-- Laravel to AWS Services -->
  <line x1="540" y1="225" x2="995" y2="415" class="arrow"/> <!-- to RDS -->
  <line x1="530" y1="235" x2="1125" y2="415" class="arrow"/> <!-- to ElastiCache -->
  
  <!-- Fargate to EFS -->
  <line x1="650" y1="480" x2="815" y2="450" class="arrow"/>
  
  <!-- NAT Gateway connections -->
  <line x1="680" y1="460" x2="240" y2="260" class="arrow"/>
  
  <!-- GitHub to Laravel (CI/CD) -->
  <line x1="150" y1="600" x2="420" y2="235" class="arrow"/>
  
  <!-- Monitoring connections -->
  <line x1="340" y1="600" x2="340" y2="525" class="arrow"/>
  <line x1="355" y1="605" x2="470" y2="525" class="arrow"/>
  
  <!-- Data Flow Labels -->
  <text x="50" y="750" class="subtitle">データフロー</text>
  <text x="50" y="770" class="small-label">1. ユーザー → ALB → Laravel (Web UI)</text>
  <text x="50" y="785" class="small-label">2. ユーザー → Velocity → Fargate Task (Minecraft)</text>
  <text x="50" y="800" class="small-label">3. ユーザー操作 → Laravel → ECS API → Fargate起動/停止</text>
  <text x="50" y="815" class="small-label">4. Fargate Task → EFS (永続化データ)</text>
  <text x="50" y="830" class="small-label">5. GitHub → Actions → Laravel Deploy</text>
  
  <!-- Technical Specifications -->
  <text x="500" y="750" class="subtitle">技術仕様</text>
  <text x="500" y="770" class="small-label">• Fargate: 1vCPU, 2GB RAM per server</text>
  <text x="500" y="785" class="small-label">• EFS: 共有ファイルシステム (暗号化)</text>
  <text x="500" y="800" class="small-label">• Manual Control: Web UI経由で起動/停止</text>
  <text x="500" y="815" class="small-label">• Network: VPC内プライベート通信</text>
  <text x="500" y="830" class="small-label">• Port: Velocity統一エントリーポイント</text>
  
  <!-- Cost Optimization -->
  <text x="850" y="750" class="subtitle">コスト最適化</text>
  <text x="850" y="770" class="small-label">• オンデマンド課金 (起動時のみ)</text>
  <text x="850" y="785" class="small-label">• EFS: 使用量ベース課金</text>
  <text x="850" y="800" class="small-label">• RDS: Multi-AZ (本番のみ)</text>
  <text x="850" y="815" class="small-label">• CloudWatch: 基本監視</text>
  <text x="850" y="830" class="small-label">• 手動制御によるコスト管理</text>

  <!-- Legend -->
  <text x="1100" y="750" class="subtitle">凡例</text>
  <rect x="1100" y="760" width="15" height="15" class="web-server"/>
  <text x="1125" y="772" class="small-label">Laravel Application</text>
  
  <rect x="1100" y="780" width="15" height="15" class="minecraft"/>
  <text x="1125" y="792" class="small-label">Minecraft Server</text>
  
  <rect x="1100" y="800" width="15" height="15" class="aws-service"/>
  <text x="1125" y="812" class="small-label">AWS Managed Service</text>
  
  <rect x="1100" y="820" width="15" height="15" class="database"/>
  <text x="1125" y="832" class="small-label">Database/Storage</text>
</svg>